<svg xmlns="http://www.w3.org/2000/svg" viewBox="0 0 1240 720" font-family="-apple-system, BlinkMacSystemFont, 'Segoe UI', Roboto, sans-serif">
  <defs>
    <linearGradient id="bg" x1="0" y1="0" x2="0" y2="1">
      <stop offset="0" stop-color="#0f1117"/>
      <stop offset="1" stop-color="#070912"/>
    </linearGradient>
    <linearGradient id="accentGrad" x1="0" y1="0" x2="1" y2="1">
      <stop offset="0" stop-color="#a78bfa"/>
      <stop offset="1" stop-color="#6d28d9"/>
    </linearGradient>
    <linearGradient id="ngrokGrad" x1="0" y1="0" x2="1" y2="0">
      <stop offset="0" stop-color="#22c55e"/>
      <stop offset="1" stop-color="#16a34a"/>
    </linearGradient>
    <linearGradient id="serverGrad" x1="0" y1="0" x2="0" y2="1">
      <stop offset="0" stop-color="#1a2030"/>
      <stop offset="1" stop-color="#0f1623"/>
    </linearGradient>
    <linearGradient id="llmGrad" x1="0" y1="0" x2="1" y2="1">
      <stop offset="0" stop-color="#60a5fa"/>
      <stop offset="1" stop-color="#1e40af"/>
    </linearGradient>
    <linearGradient id="chromaGrad" x1="0" y1="0" x2="1" y2="1">
      <stop offset="0" stop-color="#fbbf24"/>
      <stop offset="1" stop-color="#b45309"/>
    </linearGradient>
    <radialGradient id="cloudAura" cx="0.5" cy="0.5" r="0.5">
      <stop offset="0" stop-color="#7c3aed" stop-opacity="0.18"/>
      <stop offset="1" stop-color="#7c3aed" stop-opacity="0"/>
    </radialGradient>
    <radialGradient id="serverAura" cx="0.5" cy="0.5" r="0.5">
      <stop offset="0" stop-color="#3b82f6" stop-opacity="0.10"/>
      <stop offset="1" stop-color="#3b82f6" stop-opacity="0"/>
    </radialGradient>
    <filter id="glow" x="-50%" y="-50%" width="200%" height="200%">
      <feGaussianBlur stdDeviation="6"/>
      <feMerge><feMergeNode/><feMergeNode in="SourceGraphic"/></feMerge>
    </filter>
    <filter id="softGlow" x="-50%" y="-50%" width="200%" height="200%">
      <feGaussianBlur stdDeviation="2.5"/>
      <feMerge><feMergeNode/><feMergeNode in="SourceGraphic"/></feMerge>
    </filter>
    <marker id="arrow" viewBox="0 0 10 10" refX="9" refY="5" markerWidth="7" markerHeight="7" orient="auto">
      <path d="M0,0 L10,5 L0,10 z" fill="#94a3b8"/>
    </marker>
    <marker id="arrowBack" viewBox="0 0 10 10" refX="1" refY="5" markerWidth="7" markerHeight="7" orient="auto">
      <path d="M10,0 L0,5 L10,10 z" fill="#475569"/>
    </marker>
    <marker id="arrowDim" viewBox="0 0 10 10" refX="9" refY="5" markerWidth="6" markerHeight="6" orient="auto">
      <path d="M0,0 L10,5 L0,10 z" fill="#374151"/>
    </marker>
    <path id="reqPath" d="M 360 380 C 480 380, 520 380, 620 380 L 800 380 C 880 380, 900 380, 980 380"/>
    <path id="resPath" d="M 980 405 C 900 405, 880 405, 800 405 L 620 405 C 520 405, 480 405, 360 405"/>
  </defs>

  <rect width="1240" height="720" fill="url(#bg)"/>

  <!-- aura backgrounds -->
  <ellipse cx="220" cy="380" rx="260" ry="200" fill="url(#cloudAura)"/>
  <ellipse cx="1050" cy="380" rx="260" ry="240" fill="url(#serverAura)"/>

  <!-- Principled Intelligence logo (top-right) -->
  <g transform="translate(48, 8) scale(0.14)" opacity="0.85">
    <path d="M312.618 7.58533C317.527 10.4468 321.432 14.3327 324.339 19.238C327.246 24.1485 328.699 29.5091 328.699 35.3251C328.699 41.141 327.246 46.5276 324.339 51.4846C321.432 56.4417 317.527 60.3483 312.618 63.2097C307.709 66.0711 302.351 67.4992 296.537 67.4992H276.954V103.394H261.085V3.29583H296.537C302.351 3.29583 307.709 4.72391 312.618 7.58533ZM296.537 52.3435C301.202 52.3435 305.206 50.6774 308.542 47.34C311.878 44.0025 313.544 39.9975 313.544 35.3302C313.544 30.663 311.878 26.6787 308.542 23.3878C305.206 20.0969 301.202 18.4567 296.537 18.4567H276.954V52.3487H296.537V52.3435ZM378.799 30.4663L377.656 44.7683C376.606 44.4837 375.607 44.3388 374.656 44.3388C368.744 44.3388 363.794 46.124 359.79 49.6994C355.787 53.2749 353.785 58.3044 353.785 64.7879V103.399H338.775V31.8996H353.785V44.0542C355.404 40.2407 358.192 37.0016 362.149 34.3316C366.101 31.6617 370.844 30.3267 376.373 30.3267C377.423 30.3267 378.23 30.3732 378.804 30.4715L378.799 30.4663ZM388.735 15.3779C387.064 13.8049 386.232 11.6368 386.232 8.87374C386.232 6.11063 387.064 3.93743 388.735 2.36442C390.401 0.791416 392.666 0.00488281 395.526 0.00488281C398.387 0.00488281 400.647 0.791416 402.318 2.36442C403.984 3.93743 404.821 6.10546 404.821 8.87374C404.821 11.642 403.984 13.8049 402.318 15.3779C400.647 16.9509 398.387 17.7374 395.526 17.7374C392.666 17.7374 390.401 16.9509 388.735 15.3779ZM387.949 103.394V31.8945H402.959V103.394H387.949ZM467.552 32.681C471.887 34.4454 475.626 37.6121 478.771 42.1914C481.916 46.7708 483.488 52.9179 483.488 60.638V103.394H468.478V60.638C468.478 54.5375 466.761 50.1289 463.332 47.4124C459.902 44.6958 455.899 43.335 451.327 43.335C446.754 43.335 442.989 44.908 439.745 48.054C436.508 51.2 434.883 56.3019 434.883 63.3546V103.394H419.873V31.8945H434.883V39.0455C437.454 36.3755 440.433 34.2074 443.816 32.5413C447.199 30.8751 450.84 30.0369 454.751 30.0369C458.945 30.0369 463.207 30.9217 467.542 32.681H467.552ZM563.206 89.5213C559.776 94.3852 555.39 98.2194 550.052 101.034C544.714 103.844 538.952 105.251 532.756 105.251C525.99 105.251 519.721 103.559 513.959 100.175C508.192 96.7913 503.64 92.2172 500.309 86.4477C496.973 80.6783 495.307 74.4122 495.307 67.6441C495.307 60.8761 496.973 54.6306 500.309 48.9129C503.645 43.1953 508.192 38.6418 513.959 35.2578C519.721 31.8738 525.99 30.1818 532.756 30.1818C538.854 30.1818 544.549 31.5633 549.835 34.3264C555.126 37.0947 559.533 40.903 563.056 45.7669L550.761 54.0615C548.475 51.2 545.78 49.0112 542.681 47.4848C539.583 45.9584 536.273 45.1978 532.745 45.1978C528.649 45.1978 524.883 46.1964 521.454 48.1989C518.025 50.2013 515.309 52.9179 513.307 56.3485C511.306 59.7791 510.307 63.5461 510.307 67.6441C510.307 71.7422 511.306 75.5091 513.307 78.9397C515.309 82.3703 518.025 85.1128 521.454 87.1618C524.883 89.2109 528.649 90.2353 532.745 90.2353C536.268 90.2353 539.583 89.4489 542.681 87.8759C545.78 86.3029 548.469 84.1348 550.761 81.3717L563.195 89.5213H563.206ZM574.197 15.3779C572.526 13.8049 571.694 11.6368 571.694 8.87374C571.694 6.11063 572.526 3.93743 574.197 2.36442C575.863 0.791416 578.128 0.00488281 580.988 0.00488281C583.849 0.00488281 586.109 0.791416 587.78 2.36442C589.445 3.93743 590.283 6.10546 590.283 8.87374C590.283 11.642 589.445 13.8049 587.78 15.3779C586.109 16.9509 583.849 17.7374 580.988 17.7374C578.128 17.7374 575.863 16.9509 574.197 15.3779ZM573.411 103.394V31.8945H588.421V103.394H573.411ZM664.233 35.0405C669.664 38.2848 673.88 42.7606 676.885 48.4835C679.885 54.2011 681.39 60.5915 681.39 67.6441C681.39 74.6968 679.89 81.0871 676.885 86.8047C673.885 92.5224 669.664 97.0293 664.233 100.32C658.802 103.611 652.512 105.251 645.364 105.251C640.694 105.251 636.193 104.32 631.854 102.462C627.514 100.605 623.681 98.0073 620.345 94.6698V131.992H605.335V31.8945H620.345V40.6185C623.681 37.3793 627.514 34.8284 631.854 32.9656C636.188 31.108 640.694 30.1766 645.364 30.1766C652.512 30.1766 658.802 31.7962 664.233 35.0405ZM655.156 87.6637C658.632 85.6612 661.373 82.924 663.375 79.4416C665.376 75.9645 666.375 72.032 666.375 67.6441C666.375 63.2563 665.376 59.303 663.375 55.7741C661.373 52.2504 658.632 49.4821 655.156 47.4796C651.675 45.4771 647.795 44.4785 643.507 44.4785C639.219 44.4785 635.309 45.4771 631.787 47.4796C628.259 49.4821 625.471 52.2711 623.423 55.8466C621.375 59.4221 620.35 63.4011 620.35 67.789C620.35 72.1768 621.375 76.1094 623.423 79.5865C625.471 83.0689 628.259 85.7854 631.787 87.7362C635.309 89.6921 639.219 90.67 643.507 90.67C647.795 90.67 651.675 89.6714 655.156 87.6689V87.6637ZM710.79 89.0194C711.504 89.6403 712.673 89.9508 714.292 89.9508C715.528 89.9508 717.007 89.8059 718.725 89.5213V103.394C714.53 103.968 711.576 104.253 709.864 104.253C705.002 104.253 701.263 102.964 698.645 100.393C696.023 97.821 694.714 93.2417 694.714 86.6651V3.29583H709.725V85.6612C709.725 87.2808 710.081 88.4036 710.795 89.0194H710.79ZM780.918 35.1078C786.349 38.4918 790.59 43.0711 793.642 48.8353C796.688 54.6047 798.214 60.9175 798.214 67.7839C798.214 68.9274 798.023 70.7384 797.64 73.2169H739.89C741.126 78.9346 743.821 83.5139 747.964 86.9445C752.107 90.3751 757.373 92.093 763.761 92.093C767.666 92.093 771.411 91.234 774.98 89.5213C778.549 87.8086 781.197 85.5681 782.914 82.7998L794.635 89.6662C791.392 94.6232 787.104 98.4626 781.771 101.179C776.433 103.896 770.335 105.257 763.476 105.257C755.852 105.257 749.112 103.637 743.252 100.393C737.392 97.1535 732.866 92.6725 729.674 86.9496C726.483 81.232 724.885 74.7951 724.885 67.6441C724.885 60.4932 726.478 54.2011 729.674 48.4835C732.866 42.7658 737.299 38.259 742.968 34.9681C748.637 31.6772 755.092 30.0369 762.338 30.0369C769.585 30.0369 775.492 31.7289 780.923 35.113L780.918 35.1078ZM783.918 61.3469C783.152 55.7224 780.845 51.288 776.987 48.0489C773.128 44.8097 768.24 43.1849 762.333 43.1849C758.237 43.1849 754.471 44.0232 751.042 45.6893C747.612 47.3606 744.897 49.6011 742.895 52.4108C740.893 55.2257 739.843 58.2009 739.75 61.3469H783.918ZM867.995 3.29065H883.005V103.389H867.995V94.6646C864.659 98.0021 860.821 100.6 856.486 102.457C852.147 104.315 847.647 105.246 842.976 105.246C835.828 105.246 829.538 103.601 824.107 100.315C818.676 97.0242 814.461 92.5483 811.456 86.872C808.456 81.2009 806.95 74.8365 806.95 67.7839C806.95 60.7312 808.45 54.3409 811.456 48.6232C814.456 42.9055 818.676 38.3987 824.107 35.1078C829.538 31.8169 835.828 30.1766 842.976 30.1766C847.642 30.1766 852.147 31.108 856.486 32.9656C860.821 34.8232 864.654 37.4207 867.995 40.7581V3.29065ZM856.486 87.8034C860.061 85.8009 862.869 83.0378 864.918 79.5089C866.966 75.9852 867.99 72.0268 867.99 67.639C867.99 63.2511 866.966 59.3237 864.918 55.8414C862.869 52.3642 860.055 49.6477 856.486 47.6918C852.912 45.7411 848.981 44.758 844.693 44.758C840.405 44.758 836.521 45.7359 833.045 47.6918C829.564 49.6477 826.849 52.3901 824.899 55.9139C822.943 59.4428 821.966 63.4012 821.966 67.7839C821.966 72.1665 822.943 76.1249 824.899 79.6538C826.849 83.1827 829.564 85.9251 833.045 87.8759C836.521 89.8318 840.405 90.8098 844.693 90.8098C848.981 90.8098 852.912 89.8111 856.486 87.8086V87.8034ZM261.08 237.875V137.777H276.949V237.875H261.08ZM343.083 167.163C347.418 168.927 351.158 172.094 354.302 176.673C357.447 181.247 359.02 187.399 359.02 195.12V237.875H344.009V195.12C344.009 189.019 342.292 184.61 338.863 181.894C335.433 179.177 331.43 177.817 326.858 177.817C322.285 177.817 318.52 179.39 315.282 182.536C312.039 185.682 310.42 190.784 310.42 197.836V237.875H295.409V166.376H310.42V173.527C312.99 170.857 315.97 168.689 319.352 167.023C322.735 165.357 326.377 164.518 330.287 164.518C334.482 164.518 338.744 165.403 343.078 167.163H343.083ZM398.387 222.29C399.959 223.718 402.509 224.438 406.037 224.438C408.039 224.438 410.325 224.293 412.901 224.008V237.881C408.613 238.357 404.992 238.595 402.039 238.595C394.89 238.595 389.604 236.903 386.17 233.519C382.74 230.134 381.023 224.106 381.023 215.429V179.964H366.302V166.381H381.023V147.79L396.033 142.641V166.381H412.616V179.964H396.033V214.425C396.033 218.239 396.82 220.862 398.392 222.29H398.387ZM474.918 169.594C480.349 172.979 484.59 177.558 487.642 183.322C490.689 189.091 492.214 195.404 492.214 202.271C492.214 203.414 492.023 205.225 491.64 207.704H433.89C435.126 213.421 437.821 218.001 441.964 221.431C446.108 224.862 451.373 226.58 457.761 226.58C461.666 226.58 465.411 225.721 468.98 224.008C472.554 222.29 475.197 220.055 476.914 217.287L488.635 224.148C485.392 229.105 481.104 232.944 475.771 235.661C470.433 238.377 464.335 239.738 457.476 239.738C449.852 239.738 443.113 238.113 437.252 234.874C431.392 231.635 426.866 227.154 423.675 221.431C420.483 215.714 418.885 209.277 418.885 202.126C418.885 194.975 420.478 188.683 423.675 182.965C426.866 177.247 431.299 172.741 436.968 169.45C442.637 166.159 449.092 164.518 456.339 164.518C463.585 164.518 469.487 166.21 474.923 169.594H474.918ZM477.918 195.834C477.152 190.209 474.845 185.775 470.987 182.536C467.128 179.296 462.24 177.672 456.333 177.672C452.237 177.672 448.471 178.51 445.042 180.176C441.613 181.842 438.897 184.088 436.895 186.898C434.894 189.712 433.844 192.688 433.75 195.834H477.918ZM520.699 223.506C521.413 224.127 522.582 224.438 524.2 224.438C525.437 224.438 526.916 224.293 528.633 224.008V237.881C524.439 238.455 521.485 238.739 519.773 238.739C514.911 238.739 511.171 237.451 508.554 234.879C505.932 232.308 504.623 227.728 504.623 221.152V137.783H519.633V220.148C519.633 221.773 519.99 222.89 520.704 223.511L520.699 223.506ZM555.949 223.506C556.662 224.127 557.831 224.438 559.45 224.438C560.687 224.438 562.166 224.293 563.883 224.008V237.881C559.689 238.455 556.735 238.739 555.023 238.739C550.161 238.739 546.421 237.451 543.804 234.879C541.181 232.308 539.873 227.728 539.873 221.152V137.783H554.883V220.148C554.883 221.773 555.24 222.89 555.954 223.511L555.949 223.506ZM576.157 149.865C574.487 148.292 573.654 146.124 573.654 143.361C573.654 140.597 574.487 138.424 576.157 136.856C577.823 135.283 580.088 134.497 582.949 134.497C585.809 134.497 588.069 135.283 589.74 136.856C591.406 138.429 592.244 140.597 592.244 143.361C592.244 146.124 591.406 148.292 589.74 149.865C588.069 151.438 585.809 152.224 582.949 152.224C580.088 152.224 577.823 151.438 576.157 149.865ZM575.371 237.881V166.381H590.382V237.881H575.371ZM664.435 166.381H679.445V234.305C679.445 241.073 677.78 247.034 674.444 252.177C671.107 257.326 666.509 261.305 660.649 264.12C654.788 266.929 648.188 268.337 640.849 268.337C632.557 268.337 625.145 266.764 618.623 263.618C612.095 260.472 607.451 256.275 604.689 251.034L617.552 243.598C619.078 246.646 621.912 249.223 626.056 251.318C630.199 253.414 635.273 254.464 641.278 254.464C648.044 254.464 653.594 252.607 657.933 248.886C662.268 245.166 664.435 240.307 664.435 234.3V229.296C661.099 232.541 657.261 235.086 652.926 236.949C648.587 238.807 644.087 239.738 639.416 239.738C632.268 239.738 625.978 238.093 620.547 234.807C615.116 231.516 610.9 227.04 607.895 221.364C604.895 215.693 603.39 209.328 603.39 202.276C603.39 195.223 604.89 188.833 607.895 183.115C610.895 177.397 615.116 172.891 620.547 169.6C625.978 166.309 632.268 164.669 639.416 164.669C644.087 164.669 648.587 165.6 652.926 167.457C657.261 169.315 661.094 171.913 664.435 175.25V166.386V166.381ZM652.999 222.295C656.521 220.293 659.309 217.53 661.363 214.001C663.411 210.477 664.435 206.519 664.435 202.131C664.435 197.743 663.411 193.816 661.363 190.333C659.314 186.856 656.526 184.14 652.999 182.184C649.471 180.233 645.566 179.25 641.278 179.25C636.99 179.25 633.106 180.228 629.63 182.184C626.149 184.14 623.412 186.882 621.411 190.406C619.409 193.935 618.411 197.888 618.411 202.276C618.411 206.664 619.409 210.617 621.411 214.146C623.412 217.675 626.149 220.417 629.63 222.368C633.106 224.324 636.99 225.302 641.278 225.302C645.566 225.302 649.471 224.303 652.999 222.301V222.295ZM748.683 169.6C754.114 172.984 758.356 177.563 761.407 183.327C764.454 189.097 765.98 195.409 765.98 202.276C765.98 203.419 765.788 205.23 765.406 207.709H707.656C708.892 213.426 711.587 218.006 715.73 221.436C719.873 224.867 725.138 226.585 731.526 226.585C735.431 226.585 739.171 225.726 742.745 224.013C746.319 222.301 748.963 220.06 750.68 217.292L762.4 224.153C759.157 229.11 754.869 232.949 749.536 235.666C744.199 238.382 738.1 239.743 731.242 239.743C723.618 239.743 716.878 238.119 711.012 234.879C705.152 231.64 700.626 227.159 697.435 221.436C694.243 215.719 692.645 209.282 692.645 202.131C692.645 194.98 694.238 188.688 697.435 182.97C700.626 177.253 705.059 172.746 710.728 169.455C716.397 166.164 722.852 164.524 730.099 164.524C737.345 164.524 743.247 166.216 748.683 169.6ZM751.683 195.839C750.918 190.214 748.611 185.78 744.752 182.541C740.893 179.302 736.006 177.677 730.099 177.677C726.002 177.677 722.237 178.515 718.807 180.181C715.378 181.847 712.663 184.093 710.661 186.903C708.659 189.718 707.609 192.693 707.516 195.839H751.683ZM826.326 167.168C830.661 168.932 834.4 172.099 837.545 176.678C840.69 181.252 842.262 187.405 842.262 195.125V237.881H827.252V195.125C827.252 189.024 825.535 184.616 822.106 181.899C818.676 179.183 814.673 177.822 810.1 177.822C805.528 177.822 801.763 179.395 798.525 182.541C795.282 185.687 793.662 190.789 793.662 197.841V237.881H778.652V166.381H793.662V173.532C796.233 170.862 799.212 168.694 802.595 167.028C805.978 165.362 809.619 164.524 813.53 164.524C817.724 164.524 821.987 165.408 826.321 167.168H826.326ZM921.98 224.008C918.55 228.872 914.164 232.706 908.831 235.521C903.493 238.331 897.731 239.738 891.535 239.738C884.769 239.738 878.5 238.046 872.738 234.662C866.971 231.278 862.419 226.704 859.088 220.935C855.752 215.165 854.087 208.899 854.087 202.131C854.087 195.363 855.752 189.117 859.088 183.4C862.424 177.682 866.971 173.129 872.738 169.745C878.506 166.361 884.769 164.669 891.535 164.669C897.633 164.669 903.328 166.05 908.614 168.813C913.905 171.581 918.312 175.39 921.835 180.254L909.54 188.548C907.254 185.687 904.559 183.498 901.466 181.972C898.367 180.445 895.057 179.684 891.529 179.684C887.433 179.684 883.668 180.683 880.238 182.686C876.809 184.688 874.094 187.405 872.092 190.835C870.09 194.266 869.092 198.033 869.092 202.131C869.092 206.229 870.09 209.996 872.092 213.427C874.094 216.857 876.809 219.6 880.238 221.649C883.668 223.698 887.433 224.722 891.529 224.722C895.052 224.722 898.367 223.936 901.466 222.363C904.564 220.79 907.254 218.622 909.54 215.858L921.974 224.008H921.98ZM982.704 169.6C988.135 172.984 992.376 177.563 995.428 183.327C998.474 189.097 1000 195.409 1000 202.276C1000 203.419 999.809 205.23 999.426 207.709H941.676C942.912 213.426 945.607 218.006 949.75 221.436C953.893 224.867 959.159 226.585 965.547 226.585C969.452 226.585 973.197 225.726 976.766 224.013C980.335 222.301 982.983 220.06 984.7 217.292L996.421 224.153C993.178 229.11 988.89 232.949 983.557 235.666C978.219 238.382 972.121 239.743 965.262 239.743C957.638 239.743 950.899 238.119 945.038 234.879C939.178 231.64 934.652 227.159 931.461 221.436C928.269 215.719 926.671 209.282 926.671 202.131C926.671 194.98 928.264 188.688 931.461 182.97C934.652 177.253 939.085 172.746 944.754 169.455C950.423 166.164 956.878 164.524 964.124 164.524C971.371 164.524 977.278 166.216 982.709 169.6H982.704ZM985.704 195.839C984.938 190.214 982.631 185.78 978.773 182.541C974.914 179.302 970.026 177.677 964.119 177.677C960.023 177.677 956.257 178.515 952.828 180.181C949.399 181.847 946.683 184.093 944.681 186.903C942.68 189.718 941.63 192.693 941.536 195.839H985.704Z" fill="white"/>
    <path d="M94.2326 3.57153H93.2759L47.3128 49.5244H0V100.105H50.5806V54.147H94.2274C118.297 54.147 137.879 73.7289 137.879 97.7989C137.879 121.869 118.297 141.451 94.2274 141.451H33.5688L0.0103517 175.02L0.0309288 237.989H50.5858V192.026H94.2326C146.189 192.026 188.46 149.755 188.46 97.7989C188.46 45.8428 146.189 3.57153 94.2326 3.57153Z" fill="white"/>
  </g>

  <!-- Title -->
  <text x="48" y="80" fill="#f8fafc" font-size="22" font-weight="700">RAG Chatbot Architecture</text>
  <text x="48" y="101" fill="#64748b" font-size="13">User ⇄ ngrok tunnel ⇄ OpenAI-compatible server (LLM + Chroma) on localhost</text>

  <!-- Cloud / Local boundary -->
  <line x1="620" y1="130" x2="620" y2="660" stroke="#2d3448" stroke-width="1" stroke-dasharray="4 5"/>
  <text x="612" y="124" fill="#475569" font-size="10" text-anchor="end" font-weight="700" letter-spacing="3">PUBLIC INTERNET</text>
  <text x="628" y="124" fill="#475569" font-size="10" font-weight="700" letter-spacing="3">LOCAL MACHINE</text>

  <!-- ===== USER ===== -->
  <g transform="translate(80,260)">
    <rect x="0" y="0" width="280" height="240" rx="18" fill="#1a1033" stroke="url(#accentGrad)" stroke-width="2" filter="url(#glow)"/>
    <text x="140" y="34" text-anchor="middle" fill="#c4b5fd" font-size="10" font-weight="700" letter-spacing="3">USER</text>
    <text x="140" y="84" text-anchor="middle" fill="#f8fafc" font-size="28" font-weight="700">Chat Client</text>

    <!-- monitor icon (purple) -->
    <g transform="translate(108,108)">
      <!-- glow aura -->
      <circle cx="32" cy="28" r="32" fill="#7c3aed" opacity="0.18"/>
      <!-- monitor body -->
      <rect x="6" y="6" width="52" height="36" rx="3" fill="#1a1033" stroke="#a78bfa" stroke-width="1.8"/>
      <!-- chat lines on screen -->
      <rect x="12" y="13" width="22" height="3" rx="1.5" fill="#c4b5fd"/>
      <rect x="12" y="20" width="34" height="3" rx="1.5" fill="#a78bfa" opacity="0.75"/>
      <rect x="12" y="27" width="28" height="3" rx="1.5" fill="#a78bfa" opacity="0.55"/>
      <rect x="12" y="34" width="18" height="3" rx="1.5" fill="#a78bfa" opacity="0.4"/>
      <!-- stand neck -->
      <rect x="28" y="42" width="8" height="5" fill="#a78bfa"/>
      <!-- base -->
      <rect x="18" y="47" width="28" height="3" rx="1.5" fill="#c4b5fd"/>
    </g>

    <text x="140" y="200" text-anchor="middle" fill="#94a3b8" font-size="11">anyone sending a message</text>
    <text x="140" y="220" text-anchor="middle" fill="#64748b" font-size="11">browser · script · web app · curl</text>
  </g>

  <!-- ===== Request / Response paths ===== -->
  <use href="#reqPath" stroke="#94a3b8" stroke-width="2" fill="none" marker-end="url(#arrow)"/>
  <use href="#resPath" stroke="#475569" stroke-width="1.6" fill="none" stroke-dasharray="5 4" marker-end="url(#arrowBack)"/>

  <text x="535" y="368" text-anchor="end" fill="#cbd5e1" font-size="11" font-weight="600">POST /v1/chat/completions</text>
  <text x="490" y="425" text-anchor="middle" fill="#64748b" font-size="10">streamed response</text>

  <!-- animated request packet -->
  <circle r="5" fill="#a78bfa" filter="url(#softGlow)">
    <animateMotion dur="3.2s" repeatCount="indefinite" rotate="auto">
      <mpath href="#reqPath"/>
    </animateMotion>
    <animate attributeName="opacity" values="0;1;1;0" keyTimes="0;0.08;0.92;1" dur="3.2s" repeatCount="indefinite"/>
  </circle>
  <!-- animated response packet -->
  <circle r="3.5" fill="#60a5fa" filter="url(#softGlow)">
    <animateMotion dur="3.2s" begin="1.6s" repeatCount="indefinite" rotate="auto">
      <mpath href="#resPath"/>
    </animateMotion>
    <animate attributeName="opacity" values="0;1;1;0" keyTimes="0;0.08;0.92;1" dur="3.2s" begin="1.6s" repeatCount="indefinite"/>
  </circle>

  <!-- ===== NGROK TUNNEL (cylinder) ===== -->
  <g transform="translate(540,340)">
    <!-- cylinder body -->
    <rect x="20" y="0" width="160" height="80" fill="#0f2620" stroke="url(#ngrokGrad)" stroke-width="2"/>
    <ellipse cx="20" cy="40" rx="12" ry="40" fill="#0f2620" stroke="url(#ngrokGrad)" stroke-width="2"/>
    <ellipse cx="180" cy="40" rx="12" ry="40" fill="#0a1f18" stroke="url(#ngrokGrad)" stroke-width="2"/>
    <text x="100" y="-12" text-anchor="middle" fill="#86efac" font-size="10" font-weight="700" letter-spacing="2.5">NGROK TUNNEL</text>
    <text x="100" y="36" text-anchor="middle" fill="#f0fdf4" font-size="11" font-family="ui-monospace, Menlo, monospace">abc123.ngrok.app</text>
    <text x="100" y="58" text-anchor="middle" fill="#86efac" font-size="10" font-family="ui-monospace, Menlo, monospace" opacity="0.8">→ localhost:8000</text>
    <!-- subtle ridges -->
    <line x1="60" y1="6" x2="60" y2="74" stroke="#16a34a" stroke-width="0.6" opacity="0.4"/>
    <line x1="100" y1="4" x2="100" y2="76" stroke="#16a34a" stroke-width="0.6" opacity="0.4"/>
    <line x1="140" y1="6" x2="140" y2="74" stroke="#16a34a" stroke-width="0.6" opacity="0.4"/>
  </g>

  <!-- ===== SIMPLE-CHATBOT SERVER ===== -->
  <g transform="translate(900,140)">
    <rect x="0" y="0" width="300" height="500" rx="18" fill="url(#serverGrad)" stroke="#2d3448" stroke-width="1.5"/>
    <!-- header -->
    <rect x="0" y="0" width="300" height="74" rx="18" fill="#141b29"/>
    <rect x="0" y="56" width="300" height="18" fill="#141b29"/>
    <circle cx="22" cy="26" r="5" fill="#ef4444"/>
    <circle cx="40" cy="26" r="5" fill="#f59e0b"/>
    <circle cx="58" cy="26" r="5" fill="#22c55e"/>
    <text x="280" y="30" text-anchor="end" fill="#475569" font-size="9" font-family="ui-monospace, Menlo, monospace">uv run simple-chatbot serve</text>
    <text x="150" y="56" text-anchor="middle" fill="#f8fafc" font-size="14" font-weight="700">simple-chatbot</text>
    <text x="150" y="68" text-anchor="middle" fill="#64748b" font-size="9.5" font-family="ui-monospace, Menlo, monospace">OpenAI-compatible · :8000/v1</text>

    <!-- LLM block -->
    <g transform="translate(24,100)">
      <rect x="0" y="0" width="252" height="140" rx="12" fill="#0a1628" stroke="url(#llmGrad)" stroke-width="2"/>
      <text x="126" y="24" text-anchor="middle" fill="#93c5fd" font-size="10" font-weight="700" letter-spacing="2.5">LLM · via litellm</text>
      <!-- brain glyph -->
      <g transform="translate(20,40)" opacity="0.9">
        <circle cx="14" cy="14" r="13" fill="none" stroke="#60a5fa" stroke-width="1.5"/>
        <path d="M5 14 Q14 4 23 14 Q14 24 5 14 Z" fill="none" stroke="#60a5fa" stroke-width="1.2"/>
        <circle cx="14" cy="14" r="2.2" fill="#93c5fd"/>
      </g>
      <text x="62" y="52" fill="#f8fafc" font-size="11" font-weight="600">any litellm-supported model</text>
      <text x="62" y="70" fill="#94a3b8" font-size="10">e.g. GPT-5.4 · Claude 4.6 · Gemini 3.1</text>
      <text x="62" y="88" fill="#94a3b8" font-size="10">Ollama: gemma3:4b · qwen3:4b · …</text>
      <text x="62" y="112" fill="#64748b" font-size="10">unified provider interface</text>
    </g>

    <!-- vertical RAG link -->
    <g>
      <line x1="150" y1="240" x2="150" y2="290" stroke="#475569" stroke-width="1.4" stroke-dasharray="3 3"/>
      <text x="158" y="258" fill="#64748b" font-size="9.5">query</text>
      <text x="158" y="282" fill="#64748b" font-size="9.5">↑ context</text>
    </g>

    <!-- Chroma block -->
    <g transform="translate(24,290)">
      <rect x="0" y="0" width="252" height="120" rx="12" fill="#1f1208" stroke="url(#chromaGrad)" stroke-width="2"/>
      <text x="126" y="24" text-anchor="middle" fill="#fcd34d" font-size="10" font-weight="700" letter-spacing="2.5">CHROMA INDEX</text>
      <!-- DB cylinder -->
      <g transform="translate(18,40)">
        <ellipse cx="14" cy="6" rx="14" ry="5" fill="none" stroke="#fbbf24" stroke-width="1.3"/>
        <path d="M0 6 L0 32 Q0 38 14 38 Q28 38 28 32 L28 6" fill="none" stroke="#fbbf24" stroke-width="1.3"/>
        <ellipse cx="14" cy="18" rx="14" ry="5" fill="none" stroke="#fbbf24" stroke-width="0.9" opacity="0.6"/>
        <ellipse cx="14" cy="30" rx="14" ry="5" fill="none" stroke="#fbbf24" stroke-width="0.9" opacity="0.6"/>
      </g>
      <text x="62" y="52" fill="#f8fafc" font-size="11" font-weight="600">Vector store + retrieval</text>
      <text x="62" y="72" fill="#cbd5e1" font-size="10">grounded answers from your corpus</text>
      <text x="62" y="92" fill="#64748b" font-size="10">.txt · .md · .pdf · .docx loaders</text>
    </g>

    <!-- Corpus -->
    <g transform="translate(24,432)">
      <rect x="0" y="0" width="252" height="48" rx="10" fill="#0d1320" stroke="#2d3448" stroke-width="1"/>
      <!-- doc icons -->
      <g transform="translate(14,10)">
        <rect x="0" y="0" width="20" height="26" rx="2" fill="#1e293b" stroke="#475569"/>
        <line x1="4" y1="8" x2="16" y2="8" stroke="#64748b" stroke-width="1"/>
        <line x1="4" y1="13" x2="16" y2="13" stroke="#64748b" stroke-width="1"/>
        <line x1="4" y1="18" x2="12" y2="18" stroke="#64748b" stroke-width="1"/>
      </g>
      <g transform="translate(40,10)">
        <rect x="0" y="0" width="20" height="26" rx="2" fill="#1e293b" stroke="#475569"/>
        <line x1="4" y1="8" x2="16" y2="8" stroke="#64748b" stroke-width="1"/>
        <line x1="4" y1="13" x2="16" y2="13" stroke="#64748b" stroke-width="1"/>
        <line x1="4" y1="18" x2="12" y2="18" stroke="#64748b" stroke-width="1"/>
      </g>
      <g transform="translate(66,10)">
        <rect x="0" y="0" width="20" height="26" rx="2" fill="#1e293b" stroke="#475569"/>
        <line x1="4" y1="8" x2="16" y2="8" stroke="#64748b" stroke-width="1"/>
        <line x1="4" y1="13" x2="16" y2="13" stroke="#64748b" stroke-width="1"/>
        <line x1="4" y1="18" x2="12" y2="18" stroke="#64748b" stroke-width="1"/>
      </g>
      <text x="100" y="22" fill="#94a3b8" font-size="11" font-weight="600">Knowledge base</text>
      <text x="100" y="36" fill="#64748b" font-size="9.5">drop-in docs folder</text>
    </g>
  </g>

  <!-- ===== HF Datasets source ===== -->
  <g transform="translate(652, 569)">
    <rect x="0" y="0" width="158" height="54" rx="8" fill="#111827" stroke="#374151" stroke-width="1" stroke-dasharray="3 3"/>
    <text x="10" y="34" font-size="22">🤗</text>
    <text x="40" y="20" fill="#9ca3af" font-size="9.5" font-weight="700">HuggingFace Datasets</text>
    <text x="40" y="34" fill="#6b7280" font-size="9" font-family="ui-monospace, Menlo, monospace">wikimedia/wikipedia</text>
    <text x="40" y="46" fill="#4b5563" font-size="8.5">→ dumps to docs folder</text>
  </g>
  <!-- dashed arrow: HF badge → corpus block (absolute x=924, y=596) -->
  <line x1="810" y1="596" x2="920" y2="596" stroke="#374151" stroke-width="1" stroke-dasharray="3 3" marker-end="url(#arrowDim)"/>

  <!-- footer caption strip -->
  <g transform="translate(48,668)">
    <rect x="0" y="0" width="1144" height="32" rx="8" fill="#0d1320" stroke="#2d3448" stroke-width="1"/>
    <text x="16" y="20" fill="#64748b" font-size="10">
      <tspan fill="#a78bfa" font-weight="700">●</tspan> A user sends a chat message
      <tspan fill="#475569"> →  </tspan>
      <tspan fill="#86efac" font-weight="700">●</tspan> ngrok tunnels public URL → localhost
      <tspan fill="#475569"> →  </tspan>
      <tspan fill="#60a5fa" font-weight="700">●</tspan> LLM serves OpenAI-compatible chat
      <tspan fill="#475569"> →  </tspan>
      <tspan fill="#fbbf24" font-weight="700">●</tspan> Chroma indexes corpus for retrieval
      <tspan fill="#475569"> →  </tspan>
      grounded answer streams back.
    </text>
  </g>
</svg>
